<svg width="60" height="60" viewBox="0 0 90 90" fill="none" xmlns="http://www.w3.org/2000/svg">
<path d="M9.375 14.4783C9.375 11.6595 11.7173 9.375 14.6074 9.375H75.3926C78.2827 9.375 80.625 11.6595 80.625 14.4783V75.5217C80.625 78.3405 78.2827 80.625 75.3926 80.625H14.6074C11.7173 80.625 9.375 78.3405 9.375 75.5217V14.4783ZM31.3868 69.0202V36.8463H20.6948V69.0202H31.3868ZM26.043 32.4511C29.7703 32.4511 32.0904 29.9841 32.0904 26.8936C32.0236 23.7363 29.7748 21.3361 26.1143 21.3361C22.4538 21.3361 20.0625 23.7408 20.0625 26.8936C20.0625 29.9841 22.3826 32.4511 25.9718 32.4511H26.043ZM47.899 69.0202V51.0518C47.899 50.0899 47.9702 49.128 48.2552 48.4423C49.0256 46.523 50.7846 44.5324 53.7415 44.5324C57.6113 44.5324 59.1565 47.4804 59.1565 51.8088V69.0202H69.8484V50.5664C69.8484 40.6805 64.5759 36.0848 57.54 36.0848C51.8667 36.0848 49.324 39.202 47.899 41.3974V41.5088H47.8277C47.8514 41.4716 47.8751 41.4345 47.899 41.3974V36.8463H37.2115C37.3451 39.8655 37.2115 69.0202 37.2115 69.0202H47.899Z" fill="#25282B"/>
</svg>
