<svg width="65" height="65" viewBox="0 0 90 92" fill="none" xmlns="http://www.w3.org/2000/svg">
<g clip-path="url(#clip0_1_133)">
<path d="M0.890625 79.4653C0.890625 85.9625 6.0136 91.2285 12.3328 91.2285H78.1876C84.5078 91.2285 89.6301 85.9618 89.6301 79.4653V11.7635C89.6301 5.26595 84.5071 0 78.1879 0H12.3332C6.0129 0 0.890625 5.26666 0.890625 11.7631V79.465V79.4653Z" fill="#563D7C"/>
<path d="M37.689 40.3536V27.4344H48.7506C49.8044 27.4344 50.82 27.5246 51.7982 27.7053C52.7764 27.8856 53.642 28.2077 54.3946 28.6721C55.1468 29.1364 55.7489 29.7811 56.2005 30.6061C56.6519 31.4314 56.8779 32.4887 56.8779 33.7777C56.8779 36.0986 56.2005 37.775 54.8459 38.8063C53.4916 39.8379 51.7608 40.3536 49.6536 40.3536H37.689ZM25.8745 17.9962V73.2322H51.9112C54.3193 73.2322 56.6647 72.9229 58.9473 72.3039C61.2299 71.6849 63.2616 70.7309 65.0426 69.4416C66.8233 68.1523 68.2407 66.4888 69.2941 64.4518C70.3479 62.4145 70.8745 60.0034 70.8745 57.2184C70.8745 53.7628 70.0592 50.8103 68.4289 48.3607C66.7983 45.9107 64.3275 44.1959 61.0164 43.2159C63.4245 42.0299 65.2433 40.5083 66.4725 38.6516C67.7013 36.795 68.3159 34.4744 68.3159 31.689C68.3159 29.1104 67.902 26.9444 67.0742 25.1908C66.2465 23.4375 65.08 22.032 63.5749 20.9747C62.0702 19.9174 60.2642 19.1565 58.157 18.6925C56.0501 18.2282 53.7172 17.9962 51.1587 17.9962H25.8745ZM37.689 63.794V48.6312H50.5566C53.1151 48.6312 55.1721 49.237 56.7274 50.4493C58.2825 51.6613 59.0603 53.6854 59.0603 56.5221C59.0603 57.9664 58.8218 59.1524 58.3452 60.0807C57.8686 61.009 57.229 61.7442 56.4262 62.2855C55.6237 62.8272 54.6954 63.2138 53.642 63.4462C52.5882 63.6778 51.4849 63.794 50.3309 63.794H37.689Z" fill="white"/>
</g>
<defs>
<clipPath id="clip0_1_133">
<rect width="88.7395" height="91.2285" fill="white" transform="translate(0.890625)"/>
</clipPath>
</defs>
</svg>
