<svg width="75" height="75" viewBox="0 0 122 119" fill="none" xmlns="http://www.w3.org/2000/svg">
<path d="M23.1925 101.154L14.6992 7.4375H108.057L99.5526 101.139L61.3215 111.562L23.1925 101.154Z" fill="#1572B6"/>
<path d="M61.3782 103.597L92.2731 95.1739L99.5412 15.1018H61.3782V103.597Z" fill="#33A9DC"/>
<path d="M61.3782 49.054H76.8446L77.9109 37.2842H61.3782V25.7896H90.6849L90.4051 28.8724L87.5349 60.5487H61.3782V49.054Z" fill="white"/>
<path d="M61.4501 78.9045L61.3971 78.9193L48.3812 75.4609L47.5492 66.2942H35.8152L37.4526 84.3413L61.3933 90.8788L61.4501 90.864V78.9045Z" fill="#EBEBEB"/>
<path d="M75.85 60.0615L74.4433 75.4534L61.4084 78.9119V90.8714L85.3681 84.3412L85.5458 82.4001L87.5765 60.0615H75.85Z" fill="white"/>
<path d="M61.4199 25.7896V37.2842H33.1871L32.9527 34.6997L32.4195 28.8724L32.1396 25.7896H61.4199ZM61.3783 49.054V60.5487H48.5249L48.2905 57.9642L47.7611 52.1369L47.4812 49.054H61.3783Z" fill="#EBEBEB"/>
</svg>
