<svg width="65" height="65" viewBox="0 0 85 85" fill="none" xmlns="http://www.w3.org/2000/svg">
<path fill-rule="evenodd" clip-rule="evenodd" d="M5.54492 21.5098C6.01357 19.4237 7.16562 17.5611 8.81241 16.2271C10.4592 14.893 12.5031 14.1666 14.6094 14.1667H70.3906C72.4969 14.1666 74.5408 14.893 76.1876 16.2271C77.8344 17.5611 78.9864 19.4237 79.4551 21.5098L42.5 44.4551L5.54492 21.5098ZM5.3125 26.9026V60.4492L32.2874 43.6476L5.3125 26.9026ZM36.7406 46.4195L6.20035 65.4359C6.95492 67.0523 8.14585 68.4177 9.63453 69.3732C11.1232 70.3287 12.8484 70.8351 14.6094 70.8334H70.3906C72.1513 70.8338 73.8759 70.3263 75.3637 69.3699C76.8515 68.4136 78.0414 67.0477 78.795 65.4312L48.2548 46.4148L42.5 49.9895L36.7406 46.4148V46.4195ZM52.7126 43.6523L79.6875 60.4492V26.9026L52.7126 43.6476V43.6523Z" fill="#25282B"/>
</svg>
