<svg width="75" height="75" viewBox="0 0 106 105" fill="none" xmlns="http://www.w3.org/2000/svg">
<g clip-path="url(#clip0_1_127)">
<path d="M104.003 47.8219L57.7739 1.98038C55.1132 -0.6598 50.7952 -0.6598 48.1312 1.98038L38.5315 11.5001L50.7092 23.5763C53.539 22.6281 56.7842 23.2642 59.04 25.5012C61.3065 27.7525 61.9435 30.9981 60.9641 33.8134L72.7 45.452C75.5394 44.482 78.8156 45.1095 81.0834 47.3621C84.2528 50.5039 84.2528 55.596 81.0834 58.7399C77.9131 61.8841 72.7782 61.8841 69.6063 58.7399C67.2223 56.3733 66.6333 52.9013 67.8402 49.9888L56.8954 39.1352L56.8942 67.6973C57.6876 68.0863 58.4122 68.6002 59.04 69.2189C62.2094 72.3607 62.2094 77.4532 59.04 80.5995C55.8697 83.7422 50.7323 83.7422 47.5666 80.5995C44.3972 77.4532 44.3972 72.3611 47.5666 69.2193C48.3262 68.4658 49.2288 67.869 50.2224 67.4635V38.6352C49.2274 38.2324 48.3242 37.6353 47.5666 36.8793C45.1652 34.5013 44.5879 31.0071 45.8183 28.0831L33.8139 16.1775L2.11538 47.6099C-0.548225 50.2525 -0.548225 54.5349 2.11538 57.1755L48.3454 103.018C51.007 105.658 55.3242 105.658 57.989 103.018L104.003 57.3884C106.666 54.747 106.666 50.4621 104.003 47.8219" fill="#DE4C36"/>
</g>
<defs>
<clipPath id="clip0_1_127">
<rect width="105.882" height="105" fill="white" transform="translate(0.117676)"/>
</clipPath>
</defs>
</svg>
