<svg width="75" height="75" viewBox="0 0 90 88" fill="none" xmlns="http://www.w3.org/2000/svg">
<g clip-path="url(#clip0_1_125)">
<path fill-rule="evenodd" clip-rule="evenodd" d="M44.9159 0C20.4016 0 0.546143 19.69 0.546143 44C0.546143 63.47 13.247 79.915 30.884 85.745C33.1024 86.13 33.9344 84.81 33.9344 83.655C33.9344 82.61 33.8789 79.145 33.8789 75.46C22.731 77.495 19.847 72.765 18.9596 70.29C18.4604 69.025 16.2974 65.12 14.4117 64.075C12.8587 63.25 10.6403 61.215 14.3562 61.16C17.8503 61.105 20.3461 64.35 21.1781 65.67C25.1714 72.325 31.5495 70.455 34.1008 69.3C34.489 66.44 35.6537 64.515 36.9293 63.415C27.0571 62.315 16.7411 58.52 16.7411 41.69C16.7411 36.905 18.4604 32.945 21.289 29.865C20.8453 28.765 19.2924 24.255 21.7327 18.205C21.7327 18.205 25.4487 17.05 33.9344 22.715C37.484 21.725 41.2554 21.23 45.0268 21.23C48.7982 21.23 52.5697 21.725 56.1193 22.715C64.605 16.995 68.3209 18.205 68.3209 18.205C70.7613 24.255 69.2083 28.765 68.7646 29.865C71.5932 32.945 73.3125 36.85 73.3125 41.69C73.3125 58.575 62.9411 62.315 53.0688 63.415C54.6772 64.79 56.0638 67.43 56.0638 71.555C56.0638 77.44 56.0083 82.17 56.0083 83.655C56.0083 84.81 56.8403 86.185 59.0587 85.745C67.8668 82.796 75.5206 77.1822 80.9429 69.6937C86.3652 62.2052 89.283 53.219 89.2856 44C89.2856 19.69 69.4302 0 44.9159 0Z" fill="black"/>
</g>
<defs>
<clipPath id="clip0_1_125">
<rect width="88.7395" height="88" fill="white" transform="translate(0.546143)"/>
</clipPath>
</defs>
</svg>
