<svg width="75" height="75" viewBox="0 0 122 120" fill="none" xmlns="http://www.w3.org/2000/svg">
<path d="M22.3186 102.004L13.8215 7.5H107.187L98.6787 101.989L60.4476 112.5L22.3186 102.004Z" fill="#E44F26"/>
<path d="M60.5042 104.468L91.3991 95.9738L98.6672 15.2288H60.5042V104.468Z" fill="#F1662A"/>
<path d="M60.5042 50.2763H45.0378L43.9715 38.4075H60.5042V26.8163H31.1975L31.4773 29.9288L34.3475 61.8675H60.5042V50.2763V50.2763ZM60.5042 80.3775L60.4513 80.3925L47.4353 76.9088L46.6034 67.665H34.8694L36.5068 85.86L60.4513 92.4525L60.5042 92.4375V80.3775Z" fill="#EBEBEB"/>
<path d="M60.4626 50.2763V61.8675H74.8551L73.5013 76.9013L60.4626 80.3888V92.4488L84.4261 85.86L84.6 83.9025L87.3454 53.3888L87.6328 50.2763H60.4626V50.2763ZM60.4626 26.8163V38.4075H88.6954L88.9299 35.805L89.4631 29.9288L89.7429 26.8163H60.4626V26.8163Z" fill="white"/>
</svg>
