<svg xmlns="http://www.w3.org/2000/svg" xmlns:xlink="http://www.w3.org/1999/xlink"
    viewBox="0,0,256,256" width="75px" height="75px">
    <defs>
        <linearGradient x1="32" y1="25.213" x2="32" y2="36.722" gradientUnits="userSpaceOnUse"
            id="color-1">
            <stop offset="0" stop-color="#6dc7ff"></stop>
            <stop offset="1" stop-color="#e6abff"></stop>
        </linearGradient>
        <linearGradient x1="32" y1="7.426" x2="32" y2="53.44" gradientUnits="userSpaceOnUse"
            id="color-2">
            <stop offset="0" stop-color="#1a6dff"></stop>
            <stop offset="1" stop-color="#c822ff"></stop>
        </linearGradient>
    </defs>
    <g fill="none" fill-rule="nonzero" stroke="none" stroke-width="1" stroke-linecap="butt"
        stroke-linejoin="miter" stroke-miterlimit="10" stroke-dasharray="" stroke-dashoffset="0"
        font-family="none" font-weight="none" font-size="none" text-anchor="none"
        style="mix-blend-mode: normal">
        <g transform="scale(4,4)">
            <circle cx="32" cy="32" r="6" fill="url(#color-1)"></circle>
            <path
                d="M58,32c0,-3.758 -4.243,-7.017 -10.853,-8.992c0.221,-1.031 0.407,-2.045 0.524,-3.015c0.657,-5.483 -0.483,-9.323 -3.211,-10.813c-2.729,-1.489 -6.574,-0.372 -10.831,3.146c-0.544,0.449 -1.087,0.938 -1.629,1.45c-0.542,-0.513 -1.085,-1.001 -1.629,-1.45c-4.257,-3.518 -8.104,-4.634 -10.831,-3.146c-2.728,1.489 -3.868,5.329 -3.211,10.813c0.116,0.971 0.303,1.984 0.524,3.015c-6.61,1.975 -10.853,5.234 -10.853,8.992c0,3.758 4.243,7.017 10.853,8.992c-0.221,1.031 -0.407,2.045 -0.524,3.015c-0.657,5.483 0.483,9.323 3.211,10.813c0.789,0.431 1.67,0.643 2.628,0.643c2.357,0 5.177,-1.287 8.203,-3.788c0.544,-0.449 1.087,-0.938 1.629,-1.45c0.542,0.513 1.085,1.001 1.629,1.45c3.026,2.501 5.846,3.788 8.203,3.788c0.958,0 1.84,-0.213 2.628,-0.643c2.728,-1.489 3.868,-5.329 3.211,-10.813c-0.116,-0.971 -0.303,-1.984 -0.524,-3.015c6.61,-1.975 10.853,-5.234 10.853,-8.992zM34.902,13.866c3.53,-2.917 6.665,-3.987 8.599,-2.931c1.934,1.055 2.729,4.27 2.184,8.818c-0.105,0.879 -0.273,1.796 -0.469,2.729c-2.117,-0.519 -4.43,-0.915 -6.892,-1.166c-1.564,-2.275 -3.215,-4.351 -4.908,-6.132c0.494,-0.466 0.99,-0.908 1.486,-1.318zM39.899,36.313c-0.853,1.562 -1.76,3.055 -2.702,4.474c-1.651,0.138 -3.386,0.213 -5.197,0.213c-1.811,0 -3.546,-0.075 -5.198,-0.213c-0.941,-1.42 -1.849,-2.912 -2.702,-4.474c-0.784,-1.435 -1.499,-2.878 -2.142,-4.313c0.643,-1.434 1.358,-2.877 2.142,-4.313c0.853,-1.562 1.76,-3.055 2.702,-4.474c1.652,-0.138 3.387,-0.213 5.198,-0.213c1.811,0 3.546,0.075 5.198,0.213c0.941,1.42 1.849,2.912 2.702,4.474c0.784,1.435 1.499,2.878 2.142,4.313c-0.643,1.434 -1.359,2.877 -2.143,4.313zM43.078,34.487c0.68,1.739 1.238,3.444 1.676,5.096c-1.544,0.376 -3.21,0.694 -5.009,0.929c0.657,-1.05 1.3,-2.124 1.909,-3.241c0.507,-0.925 0.975,-1.855 1.424,-2.784zM32,47.403c-1.272,-1.341 -2.522,-2.863 -3.729,-4.513c1.216,0.071 2.459,0.11 3.729,0.11c1.27,0 2.513,-0.039 3.729,-0.11c-1.207,1.65 -2.457,3.172 -3.729,4.513zM24.254,40.512c-1.799,-0.235 -3.465,-0.553 -5.009,-0.929c0.438,-1.652 0.996,-3.358 1.676,-5.096c0.45,0.93 0.918,1.859 1.423,2.785c0.61,1.116 1.253,2.19 1.91,3.24zM20.922,29.513c-0.68,-1.739 -1.238,-3.445 -1.676,-5.096c1.544,-0.376 3.21,-0.694 5.009,-0.929c-0.657,1.05 -1.3,2.124 -1.909,3.241c-0.507,0.925 -0.975,1.855 -1.424,2.784zM32,16.597c1.272,1.341 2.522,2.863 3.729,4.513c-1.216,-0.071 -2.459,-0.11 -3.729,-0.11c-1.27,0 -2.513,0.039 -3.729,0.11c1.207,-1.65 2.457,-3.172 3.729,-4.513zM41.655,26.729c-0.609,-1.116 -1.252,-2.19 -1.909,-3.241c1.799,0.235 3.465,0.553 5.009,0.929c-0.438,1.652 -0.996,3.358 -1.676,5.096c-0.45,-0.929 -0.918,-1.859 -1.424,-2.784zM18.315,19.754c-0.546,-4.549 0.25,-7.764 2.184,-8.818c0.488,-0.267 1.053,-0.397 1.681,-0.397c1.86,0 4.278,1.147 6.918,3.328c0.496,0.41 0.993,0.852 1.488,1.319c-1.693,1.781 -3.345,3.856 -4.908,6.132c-2.463,0.251 -4.776,0.648 -6.892,1.166c-0.198,-0.934 -0.365,-1.851 -0.471,-2.73zM8,32c0,-2.6 3.47,-5.303 9.317,-7.06c0.606,2.279 1.437,4.654 2.471,7.06c-1.034,2.407 -1.865,4.782 -2.471,7.06c-5.847,-1.757 -9.317,-4.46 -9.317,-7.06zM29.098,50.134c-3.53,2.917 -6.662,3.989 -8.599,2.931c-1.934,-1.055 -2.729,-4.27 -2.184,-8.818c0.105,-0.879 0.273,-1.796 0.469,-2.729c2.117,0.519 4.43,0.915 6.892,1.166c1.564,2.275 3.215,4.351 4.908,6.132c-0.494,0.466 -0.99,0.908 -1.486,1.318zM45.685,44.246c0.546,4.549 -0.25,7.764 -2.184,8.818c-1.934,1.059 -5.068,-0.014 -8.599,-2.931c-0.496,-0.41 -0.993,-0.852 -1.488,-1.319c1.693,-1.781 3.345,-3.856 4.908,-6.132c2.463,-0.251 4.776,-0.648 6.892,-1.166c0.198,0.934 0.365,1.851 0.471,2.73zM46.683,39.06c-0.606,-2.279 -1.437,-4.654 -2.471,-7.06c1.034,-2.407 1.865,-4.782 2.471,-7.06c5.847,1.757 9.317,4.46 9.317,7.06c0,2.6 -3.47,5.303 -9.317,7.06z"
                fill="url(#color-2)"></path>
        </g>
    </g>
    <g fill="#cc5de8" fill-rule="nonzero" stroke="none" stroke-width="1" stroke-linecap="butt"
        stroke-linejoin="miter" stroke-miterlimit="10" stroke-dasharray="" stroke-dashoffset="0"
        font-family="none" font-weight="none" font-size="none" text-anchor="none"
        style="mix-blend-mode: normal">
        <g>
            <path
                d="M53.245,251.375l-4.94,-9.2h-5.34v9.2h-3.01v-22.75h7.53c2.56,0 4.53,0.58333 5.91,1.75c1.38,1.16667 2.07,2.86333 2.07,5.09v0c0,1.42 -0.38333,2.65667 -1.15,3.71c-0.76667,1.05333 -1.83,1.84 -3.19,2.36v0l5.34,9.65v0.19zM42.965,231.095v8.62h4.61c1.48667,0 2.67,-0.38333 3.55,-1.15c0.88667,-0.77333 1.33,-1.80667 1.33,-3.1v0c0,-1.40667 -0.42,-2.48333 -1.26,-3.23c-0.84,-0.75333 -2.05333,-1.13333 -3.64,-1.14v0zM66.235,251.685v0c-2.29333,0 -4.16,-0.75333 -5.6,-2.26c-1.43333,-1.5 -2.15,-3.51 -2.15,-6.03v0v-0.54c0,-1.67333 0.32,-3.17 0.96,-4.49c0.64,-1.31333 1.53333,-2.34333 2.68,-3.09c1.15333,-0.74667 2.40333,-1.12 3.75,-1.12v0c2.19333,0 3.9,0.72333 5.12,2.17c1.22,1.45333 1.83,3.52667 1.83,6.22v0v1.21h-11.45c0.04,1.66667 0.52667,3.01 1.46,4.03c0.93333,1.02667 2.11667,1.54 3.55,1.54v0c1.02,0 1.88667,-0.20667 2.6,-0.62c0.70667,-0.42 1.32667,-0.97333 1.86,-1.66v0l1.76,1.38c-1.41333,2.17333 -3.53667,3.26 -6.37,3.26zM65.875,236.535v0c-1.16667,0 -2.14667,0.42333 -2.94,1.27c-0.79333,0.84667 -1.28333,2.03667 -1.47,3.57v0h8.47v-0.22c-0.08667,-1.46667 -0.48333,-2.60333 -1.19,-3.41c-0.70667,-0.80667 -1.66333,-1.21 -2.87,-1.21zM89.635,251.375h-3.03c-0.16667,-0.33333 -0.3,-0.92667 -0.4,-1.78v0c-1.34667,1.39333 -2.95333,2.09 -4.82,2.09v0c-1.66667,0 -3.03333,-0.47 -4.1,-1.41c-1.06667,-0.94667 -1.6,-2.14333 -1.6,-3.59v0c0,-1.76 0.67,-3.12667 2.01,-4.1c1.34,-0.97333 3.22333,-1.46 5.65,-1.46v0h2.81v-1.33c0,-1.00667 -0.30333,-1.81 -0.91,-2.41c-0.6,-0.6 -1.49,-0.9 -2.67,-0.9v0c-1.03333,0 -1.89667,0.26 -2.59,0.78c-0.7,0.52 -1.05,1.15 -1.05,1.89v0h-2.91c0,-0.84 0.3,-1.65333 0.9,-2.44c0.6,-0.78667 1.41333,-1.41 2.44,-1.87c1.02667,-0.46 2.15333,-0.69 3.38,-0.69v0c1.94667,0 3.47333,0.48667 4.58,1.46c1.10667,0.97333 1.68,2.31667 1.72,4.03v0v7.78c0,1.55333 0.19667,2.78667 0.59,3.7v0zM81.805,249.175v0c0.90667,0 1.76667,-0.23667 2.58,-0.71c0.81333,-0.46667 1.40333,-1.07333 1.77,-1.82v0v-3.47h-2.27c-3.54,0 -5.31,1.03667 -5.31,3.11v0c0,0.90667 0.30333,1.61333 0.91,2.12c0.6,0.51333 1.37333,0.77 2.32,0.77zM100.355,249.325v0c1.03333,0 1.93333,-0.31 2.7,-0.93c0.77333,-0.62667 1.20333,-1.41 1.29,-2.35v0h2.73c-0.05333,0.97333 -0.38667,1.89667 -1,2.77c-0.61333,0.87333 -1.43333,1.57 -2.46,2.09c-1.02667,0.52 -2.11333,0.78 -3.26,0.78v0c-2.3,0 -4.13,-0.76667 -5.49,-2.3c-1.36,-1.54 -2.04,-3.64333 -2.04,-6.31v0v-0.48c0,-1.64667 0.30333,-3.11 0.91,-4.39c0.6,-1.28 1.46667,-2.27667 2.6,-2.99c1.12667,-0.70667 2.46333,-1.06 4.01,-1.06v0c1.89333,0 3.46667,0.56667 4.72,1.7c1.26,1.14 1.93,2.61667 2.01,4.43v0h-2.73c-0.08667,-1.09333 -0.50333,-1.99333 -1.25,-2.7c-0.74,-0.7 -1.65667,-1.05 -2.75,-1.05v0c-1.47333,0 -2.61333,0.52667 -3.42,1.58c-0.80667,1.06 -1.21,2.59 -1.21,4.59v0v0.55c0,1.94667 0.4,3.44667 1.2,4.5c0.80667,1.04667 1.95333,1.57 3.44,1.57zM111.355,230.375h2.89v4.09h3.16v2.24h-3.16v10.48c0,0.68 0.14,1.19 0.42,1.53c0.28667,0.33333 0.76667,0.5 1.44,0.5v0c0.33333,0 0.79333,-0.06 1.38,-0.18v0v2.34c-0.76,0.20667 -1.5,0.31 -2.22,0.31v0c-1.29333,0 -2.26667,-0.39 -2.92,-1.17c-0.66,-0.78 -0.99,-1.89 -0.99,-3.33v0v-10.48h-3.08v-2.24h3.08zM146.635,228.625v22.75h-3.01l-11.46,-17.53v17.53h-3.01v-22.75h3.01l11.49,17.61v-17.61zM164.985,251.375h-3.03c-0.16667,-0.33333 -0.30333,-0.92667 -0.41,-1.78v0c-1.34667,1.39333 -2.95,2.09 -4.81,2.09v0c-1.66667,0 -3.03667,-0.47 -4.11,-1.41c-1.06667,-0.94667 -1.6,-2.14333 -1.6,-3.59v0c0,-1.76 0.67,-3.12667 2.01,-4.1c1.34,-0.97333 3.22333,-1.46 5.65,-1.46v0h2.81v-1.33c0,-1.00667 -0.3,-1.81 -0.9,-2.41c-0.60667,-0.6 -1.5,-0.9 -2.68,-0.9v0c-1.02667,0 -1.89,0.26 -2.59,0.78c-0.7,0.52 -1.05,1.15 -1.05,1.89v0h-2.9c0,-0.84 0.3,-1.65333 0.9,-2.44c0.59333,-0.78667 1.40333,-1.41 2.43,-1.87c1.02667,-0.46 2.15667,-0.69 3.39,-0.69v0c1.94667,0 3.47,0.48667 4.57,1.46c1.10667,0.97333 1.68,2.31667 1.72,4.03v0v7.78c0,1.55333 0.2,2.78667 0.6,3.7v0zM157.155,249.175v0c0.90667,0 1.76667,-0.23667 2.58,-0.71c0.81333,-0.46667 1.4,-1.07333 1.76,-1.82v0v-3.47h-2.26c-3.54667,0 -5.32,1.03667 -5.32,3.11v0c0,0.90667 0.30333,1.61333 0.91,2.12c0.60667,0.51333 1.38333,0.77 2.33,0.77zM169.955,230.375h2.89v4.09h3.15v2.24h-3.15v10.48c0,0.68 0.14,1.19 0.42,1.53c0.28,0.33333 0.76,0.5 1.44,0.5v0c0.33333,0 0.79,-0.06 1.37,-0.18v0v2.34c-0.76,0.20667 -1.5,0.31 -2.22,0.31v0c-1.29333,0 -2.26667,-0.39 -2.92,-1.17c-0.65333,-0.78 -0.98,-1.89 -0.98,-3.33v0v-10.48h-3.08v-2.24h3.08zM182.515,234.465v16.91h-2.89v-16.91zM179.385,229.985v0c0,-0.46667 0.14333,-0.86333 0.43,-1.19c0.28667,-0.32 0.71333,-0.48 1.28,-0.48c0.56,0 0.98667,0.16 1.28,0.48c0.28667,0.32667 0.43,0.72333 0.43,1.19c0,0.46667 -0.14333,0.85667 -0.43,1.17c-0.29333,0.31333 -0.72,0.47 -1.28,0.47c-0.56667,0 -0.99333,-0.15667 -1.28,-0.47c-0.28667,-0.31333 -0.43,-0.70333 -0.43,-1.17zM188.415,234.465l4.3,12.99l4.19,-12.99h2.95l-6.06,16.91h-2.2l-6.13,-16.91zM209.455,251.685v0c-2.29333,0 -4.16,-0.75333 -5.6,-2.26c-1.43333,-1.5 -2.15,-3.51 -2.15,-6.03v0v-0.54c0,-1.67333 0.32,-3.17 0.96,-4.49c0.64,-1.31333 1.53333,-2.34333 2.68,-3.09c1.15333,-0.74667 2.40333,-1.12 3.75,-1.12v0c2.19333,0 3.9,0.72333 5.12,2.17c1.22,1.45333 1.83,3.52667 1.83,6.22v0v1.21h-11.45c0.04,1.66667 0.52667,3.01 1.46,4.03c0.93333,1.02667 2.11667,1.54 3.55,1.54v0c1.02,0 1.88667,-0.20667 2.6,-0.62c0.70667,-0.42 1.32333,-0.97333 1.85,-1.66v0l1.77,1.38c-1.41333,2.17333 -3.53667,3.26 -6.37,3.26zM209.095,236.535v0c-1.16667,0 -2.14667,0.42333 -2.94,1.27c-0.79333,0.84667 -1.28333,2.03667 -1.47,3.57v0h8.47v-0.22c-0.08667,-1.46667 -0.48333,-2.60333 -1.19,-3.41c-0.70667,-0.80667 -1.66333,-1.21 -2.87,-1.21z"></path>
        </g>
    </g>
</svg>