<svg width="60" height="60" viewBox="0 0 90 90" fill="none" xmlns="http://www.w3.org/2000/svg">
<path d="M56.25 45C56.25 47.225 55.5902 49.4001 54.354 51.2502C53.1179 53.1002 51.3609 54.5422 49.3052 55.3936C47.2495 56.2451 44.9875 56.4679 42.8052 56.0338C40.6229 55.5998 38.6184 54.5283 37.045 52.9549C35.4717 51.3816 34.4002 49.3771 33.9662 47.1948C33.5321 45.0125 33.7549 42.7505 34.6064 40.6948C35.4578 38.6391 36.8998 36.8821 38.7498 35.646C40.5999 34.4098 42.775 33.75 45 33.75C47.9826 33.7534 50.8421 34.9398 52.9512 37.0489C55.0602 39.1579 56.2466 42.0174 56.25 45ZM80.1562 29.5312V60.4688C80.1503 65.6884 78.0742 70.6925 74.3833 74.3833C70.6925 78.0742 65.6884 80.1503 60.4688 80.1562H29.5312C24.3116 80.1503 19.3075 78.0742 15.6167 74.3833C11.9258 70.6925 9.84971 65.6884 9.84375 60.4688V29.5312C9.84971 24.3116 11.9258 19.3075 15.6167 15.6167C19.3075 11.9258 24.3116 9.84971 29.5312 9.84375H60.4688C65.6884 9.84971 70.6925 11.9258 74.3833 15.6167C78.0742 19.3075 80.1503 24.3116 80.1562 29.5312ZM61.875 45C61.875 41.6624 60.8853 38.3998 59.031 35.6248C57.1768 32.8497 54.5413 30.6868 51.4578 29.4095C48.3743 28.1323 44.9813 27.7981 41.7079 28.4492C38.4344 29.1004 35.4276 30.7076 33.0676 33.0676C30.7076 35.4276 29.1004 38.4344 28.4492 41.7079C27.7981 44.9813 28.1323 48.3743 29.4095 51.4578C30.6868 54.5413 32.8497 57.1768 35.6248 59.031C38.3998 60.8853 41.6624 61.875 45 61.875C49.474 61.87 53.7633 60.0905 56.9269 56.9269C60.0905 53.7633 61.87 49.474 61.875 45ZM67.5 26.7188C67.5 25.8844 67.2526 25.0687 66.789 24.3749C66.3254 23.6812 65.6666 23.1404 64.8957 22.8211C64.1248 22.5018 63.2766 22.4183 62.4582 22.5811C61.6399 22.7438 60.8881 23.1456 60.2981 23.7356C59.7081 24.3256 59.3063 25.0774 59.1436 25.8957C58.9808 26.7141 59.0643 27.5623 59.3836 28.3332C59.7029 29.1041 60.2437 29.763 60.9374 30.2265C61.6312 30.6901 62.4469 30.9375 63.2812 30.9375C64.4001 30.9375 65.4732 30.493 66.2644 29.7019C67.0555 28.9107 67.5 27.8376 67.5 26.7188Z" fill="#25282B"/>
</svg>
