<svg width="75" height="75" viewBox="0 0 114 112" fill="none" xmlns="http://www.w3.org/2000/svg">
<path d="M102.943 17.605L82.5923 7.88899C81.443 7.33948 80.1498 7.15814 78.892 7.37011C77.6342 7.58208 76.474 8.17686 75.5723 9.07199L8.95463 69.3C8.14636 70.0273 7.66254 71.0432 7.60959 72.1243C7.55664 73.2053 7.9389 74.2629 8.67228 75.0645C8.76051 75.159 8.84875 75.25 8.94404 75.334L14.3829 80.234C15.0936 80.8754 16.0084 81.2497 16.9684 81.2919C17.9284 81.3341 18.873 81.0416 19.6382 80.465L99.8793 20.125C100.485 19.6689 101.208 19.3897 101.965 19.3186C102.723 19.2476 103.485 19.3877 104.167 19.7231C104.848 20.0585 105.422 20.5758 105.823 21.217C106.224 21.8581 106.437 22.5975 106.437 23.352V23.1175C106.437 21.9656 106.109 20.8372 105.491 19.862C104.873 18.8868 103.99 18.1045 102.943 17.605Z" fill="#0065A9"/>
<path d="M102.943 94.395L82.5923 104.115C81.4427 104.662 80.1499 104.843 78.8924 104.631C77.6349 104.419 76.4748 103.825 75.5723 102.932L8.95463 42.7C8.14636 41.9727 7.66254 40.9568 7.60959 39.8758C7.55664 38.7947 7.9389 37.7371 8.67228 36.9355C8.76051 36.841 8.84875 36.75 8.94404 36.666L14.3829 31.766C15.0943 31.1219 16.0112 30.7459 16.9736 30.7037C17.936 30.6615 18.8828 30.9557 19.6487 31.535L99.8793 91.875C100.485 92.3311 101.208 92.6104 101.965 92.6814C102.723 92.7524 103.485 92.6123 104.167 92.2769C104.848 91.9415 105.422 91.4242 105.823 90.783C106.224 90.1419 106.437 89.4025 106.437 88.648V88.9C106.433 90.0488 106.103 91.1733 105.486 92.1451C104.868 93.1168 103.987 93.8965 102.943 94.395Z" fill="#007ACC"/>
<path d="M82.5922 104.115C81.4426 104.662 80.1498 104.843 78.8923 104.631C77.6349 104.419 76.4748 103.825 75.5722 102.932C76.0791 103.428 76.7223 103.764 77.4212 103.899C78.1202 104.035 78.8438 103.962 79.5014 103.691C80.1591 103.42 80.7214 102.963 81.118 102.376C81.5147 101.79 81.7279 101.1 81.731 100.394V11.606C81.7316 10.8965 81.5199 10.2028 81.1226 9.61281C80.7253 9.02277 80.1603 8.56294 79.4992 8.29158C78.8382 8.02022 78.1108 7.94953 77.4092 8.08846C76.7076 8.2274 76.0634 8.56971 75.5581 9.07204C76.46 8.17723 77.6199 7.58242 78.8775 7.36986C80.1351 7.1573 81.4283 7.3375 82.5781 7.88554L102.925 17.5875C103.975 18.0845 104.862 18.8658 105.483 19.8412C106.105 20.8166 106.435 21.9463 106.437 23.1V88.9C106.437 90.0528 106.109 91.1823 105.49 92.1582C104.871 93.1341 103.987 93.9168 102.939 94.416L82.5922 104.115Z" fill="#1F9CF0"/>
</svg>
